<mxfile host="app.diagrams.net" modified="2024-03-27T02:55:12.461Z" agent="Mozilla/5.0 (Windows NT 10.0; Win64; x64) AppleWebKit/537.36 (KHTML, like Gecko) Chrome/122.0.0.0 Safari/537.36 Edg/122.0.0.0" etag="Iy158nm7J2Eh7_5slr0O" version="24.1.0" type="device">
  <diagram id="RDIKtX_a83Oh4Xve_zxi" name="CGImysql">
    <mxGraphModel dx="1997" dy="1212" grid="0" gridSize="10" guides="1" tooltips="1" connect="1" arrows="1" fold="1" page="1" pageScale="1" pageWidth="3300" pageHeight="2339" background="#FFFFFF" math="0" shadow="0">
      <root>
        <mxCell id="0" />
        <mxCell id="1" parent="0" />
        <mxCell id="3Z2LKUSVhNlnbu3QMPFn-5" value="" style="group" parent="1" vertex="1" connectable="0">
          <mxGeometry x="1618" y="964" width="800" height="673" as="geometry" />
        </mxCell>
        <mxCell id="3Z2LKUSVhNlnbu3QMPFn-1" value="&lt;font style=&quot;font-size: 18px;&quot;&gt;&lt;i&gt;connection_pool&lt;/i&gt;&lt;/font&gt;" style="swimlane;fontStyle=1;align=center;verticalAlign=top;childLayout=stackLayout;horizontal=1;startSize=26;horizontalStack=0;resizeParent=1;resizeParentMax=0;resizeLast=0;collapsible=1;marginBottom=0;whiteSpace=wrap;html=1;" parent="3Z2LKUSVhNlnbu3QMPFn-5" vertex="1">
          <mxGeometry x="6" y="45" width="794" height="628" as="geometry" />
        </mxCell>
        <mxCell id="3Z2LKUSVhNlnbu3QMPFn-2" value="&lt;div&gt;&lt;font style=&quot;font-size: 18px;&quot;&gt;- m_MaxConn:&amp;nbsp;&lt;/font&gt;&lt;span style=&quot;font-size: 18px; background-color: initial;&quot;&gt;int&amp;nbsp;&lt;/span&gt;&lt;span style=&quot;font-size: 18px; background-color: initial;&quot;&gt;&amp;nbsp;&amp;nbsp;//最大连接&lt;/span&gt;&lt;/div&gt;&lt;div&gt;&lt;span style=&quot;background-color: initial; font-size: 18px;&quot;&gt;-&lt;/span&gt;&lt;span style=&quot;font-size: medium; background-color: initial;&quot;&gt; m_CurConn:&amp;nbsp;&lt;/span&gt;&lt;span style=&quot;font-size: medium; background-color: initial;&quot;&gt;int&amp;nbsp;&lt;/span&gt;&lt;span style=&quot;background-color: initial; font-size: medium;&quot;&gt;&amp;nbsp;&amp;nbsp;//当前已使用的连接数&lt;/span&gt;&lt;/div&gt;&lt;div&gt;&lt;span style=&quot;white-space: normal;&quot;&gt;&lt;font size=&quot;3&quot;&gt;- m_FreeConn:&amp;nbsp;&lt;/font&gt;&lt;/span&gt;&lt;span style=&quot;font-size: medium; background-color: initial;&quot;&gt;int&lt;/span&gt;&lt;span style=&quot;font-size: medium; background-color: initial;&quot;&gt;&amp;nbsp; &amp;nbsp;//当前空闲的连接数&lt;/span&gt;&lt;/div&gt;&lt;div&gt;&lt;span style=&quot;white-space: normal;&quot;&gt;&lt;font size=&quot;3&quot;&gt;- lock:&amp;nbsp;&lt;/font&gt;&lt;/span&gt;&lt;span style=&quot;font-size: medium; background-color: initial;&quot;&gt;locker&lt;/span&gt;&lt;/div&gt;&lt;div&gt;&lt;span style=&quot;white-space: normal;&quot;&gt;&lt;font size=&quot;3&quot;&gt;- connList:&amp;nbsp;&lt;/font&gt;&lt;/span&gt;&lt;span style=&quot;font-size: medium; background-color: initial;&quot;&gt;list&amp;lt;MYSQL *&amp;gt;&lt;/span&gt;&lt;span style=&quot;font-size: medium; background-color: initial;&quot;&gt;&amp;nbsp;//连接池&lt;/span&gt;&lt;/div&gt;&lt;div&gt;&lt;span style=&quot;white-space: normal;&quot;&gt;&lt;font size=&quot;3&quot;&gt;- reserve:&amp;nbsp;&lt;/font&gt;&lt;/span&gt;&lt;span style=&quot;font-size: medium; background-color: initial;&quot;&gt;sem&lt;/span&gt;&lt;/div&gt;&lt;div&gt;&lt;span style=&quot;background-color: initial;&quot;&gt;&lt;font size=&quot;3&quot;&gt;&lt;div style=&quot;&quot;&gt;+ m_url:&amp;nbsp;&lt;span style=&quot;background-color: initial;&quot;&gt;string&amp;nbsp; &amp;nbsp;&lt;/span&gt;&lt;span style=&quot;background-color: initial;&quot;&gt;//主机地址&lt;/span&gt;&lt;/div&gt;&lt;/font&gt;&lt;/span&gt;&lt;span style=&quot;background-color: initial;&quot;&gt;&lt;font size=&quot;3&quot;&gt;&lt;div style=&quot;&quot;&gt;+ m_Port:&lt;span style=&quot;background-color: initial;&quot;&gt;&amp;nbsp;&lt;/span&gt;&lt;span style=&quot;background-color: initial;&quot;&gt;string&amp;nbsp; &amp;nbsp;&lt;/span&gt;&lt;span style=&quot;background-color: initial;&quot;&gt;//数据库端口号&lt;/span&gt;&lt;/div&gt;&lt;/font&gt;&lt;/span&gt;&lt;span style=&quot;background-color: initial;&quot;&gt;&lt;font size=&quot;3&quot;&gt;&lt;div style=&quot;&quot;&gt;+ m_User:&amp;nbsp;&lt;span style=&quot;background-color: initial;&quot;&gt;string&amp;nbsp; &amp;nbsp;&lt;/span&gt;&lt;span style=&quot;background-color: initial;&quot;&gt;//登陆数据库用户名&lt;/span&gt;&lt;/div&gt;&lt;/font&gt;&lt;/span&gt;&lt;span style=&quot;background-color: initial;&quot;&gt;&lt;font size=&quot;3&quot;&gt;&lt;div style=&quot;&quot;&gt;+ m_PassWord:&amp;nbsp;&lt;span style=&quot;background-color: initial;&quot;&gt;string&amp;nbsp; &amp;nbsp;&lt;/span&gt;&lt;span style=&quot;background-color: initial;&quot;&gt;//登陆数据库密码&lt;/span&gt;&lt;/div&gt;&lt;/font&gt;&lt;/span&gt;&lt;span style=&quot;background-color: initial;&quot;&gt;&lt;font size=&quot;3&quot;&gt;&lt;div style=&quot;&quot;&gt;+ m_DatabaseName:&amp;nbsp;&lt;span style=&quot;background-color: initial;&quot;&gt;string&lt;/span&gt;&lt;span style=&quot;background-color: initial;&quot;&gt;&amp;nbsp; &amp;nbsp;&lt;/span&gt;&lt;span style=&quot;background-color: initial;&quot;&gt;//使用数据库名&lt;/span&gt;&lt;/div&gt;&lt;/font&gt;&lt;/span&gt;&lt;span style=&quot;background-color: initial;&quot;&gt;&lt;font size=&quot;3&quot;&gt;&lt;div style=&quot;&quot;&gt;+ m_close_log:&amp;nbsp;&lt;span style=&quot;background-color: initial;&quot;&gt;int&lt;/span&gt;&lt;span style=&quot;background-color: initial; white-space: pre;&quot;&gt;&#x9;&lt;/span&gt;&lt;span style=&quot;background-color: initial;&quot;&gt;//日志开关&lt;/span&gt;&lt;/div&gt;&lt;/font&gt;&lt;/span&gt;&lt;/div&gt;" style="text;strokeColor=none;fillColor=default;align=left;verticalAlign=top;spacingLeft=4;spacingRight=4;overflow=hidden;rotatable=0;points=[[0,0.5],[1,0.5]];portConstraint=eastwest;whiteSpace=wrap;html=1;" parent="3Z2LKUSVhNlnbu3QMPFn-1" vertex="1">
          <mxGeometry y="26" width="794" height="324" as="geometry" />
        </mxCell>
        <mxCell id="3Z2LKUSVhNlnbu3QMPFn-3" value="&lt;div&gt;&lt;span style=&quot;font-size: 18px;&quot;&gt;// 构造和析构函数私有是为了单例模式的实现&lt;/span&gt;&lt;/div&gt;&lt;div&gt;&lt;span style=&quot;font-size: 18px;&quot;&gt;- connection_pool():&amp;nbsp;&lt;/span&gt;&lt;/div&gt;&lt;div&gt;&lt;span style=&quot;font-size: 18px;&quot;&gt;- ~connection_pool():&lt;/span&gt;&lt;/div&gt;&lt;div&gt;&lt;div style=&quot;&quot;&gt;&lt;span style=&quot;font-size: 18px;&quot;&gt;+ GetConnection():&amp;nbsp;&lt;/span&gt;&lt;span style=&quot;font-size: 18px; background-color: initial;&quot;&gt;MYSQL *&amp;nbsp; &amp;nbsp;&lt;/span&gt;&lt;span style=&quot;font-size: 18px; background-color: initial;&quot;&gt;// 获取数据库连接&lt;/span&gt;&lt;/div&gt;&lt;div style=&quot;&quot;&gt;&lt;span style=&quot;font-size: 18px;&quot;&gt;+ ReleaseConnection(MYSQL *conn):&amp;nbsp;&lt;/span&gt;&lt;span style=&quot;font-size: 18px; background-color: initial;&quot;&gt;bool&amp;nbsp; &amp;nbsp;&lt;/span&gt;&lt;span style=&quot;font-size: 18px; background-color: initial;&quot;&gt;// 释放连接&lt;/span&gt;&lt;/div&gt;&lt;div style=&quot;&quot;&gt;&lt;span style=&quot;font-size: 18px;&quot;&gt;+ GetFreeConn():&amp;nbsp;&lt;/span&gt;&lt;span style=&quot;font-size: 18px; background-color: initial;&quot;&gt;int&lt;/span&gt;&lt;span style=&quot;font-size: 18px; background-color: initial;&quot;&gt;&amp;nbsp; &amp;nbsp;&amp;nbsp;&lt;/span&gt;&lt;span style=&quot;font-size: 18px; background-color: initial;&quot;&gt;// 获取连接&lt;/span&gt;&lt;/div&gt;&lt;div style=&quot;&quot;&gt;&lt;span style=&quot;font-size: 18px;&quot;&gt;+ DestroyPool():&amp;nbsp;&lt;/span&gt;&lt;span style=&quot;font-size: 18px; background-color: initial;&quot;&gt;void&amp;nbsp; &amp;nbsp;&lt;/span&gt;&lt;span style=&quot;font-size: 18px; background-color: initial;&quot;&gt;// 销毁所有连接&lt;/span&gt;&lt;/div&gt;&lt;div style=&quot;&quot;&gt;&lt;span style=&quot;font-size: 18px;&quot;&gt;+ GetInstance():&amp;nbsp;&lt;/span&gt;&lt;span style=&quot;font-size: 18px; background-color: initial;&quot;&gt;static connection_pool *&lt;/span&gt;&lt;span style=&quot;background-color: initial; font-size: 18px;&quot;&gt;&amp;nbsp;&amp;nbsp;&lt;/span&gt;&lt;span style=&quot;background-color: initial; font-size: 18px;&quot;&gt;&amp;nbsp;&lt;/span&gt;&lt;span style=&quot;background-color: initial; font-size: 18px;&quot;&gt;// 单例模式&lt;/span&gt;&lt;/div&gt;&lt;div style=&quot;&quot;&gt;&lt;span style=&quot;font-size: 18px;&quot;&gt;+ init(string url, string User, string PassWord, string DataBaseName, int Port, int MaxConn, int close_log):&amp;nbsp;&lt;/span&gt;&lt;span style=&quot;font-size: 18px; background-color: initial;&quot;&gt;void&lt;/span&gt;&lt;/div&gt;&lt;/div&gt;" style="html=1;whiteSpace=wrap;align=left;" parent="3Z2LKUSVhNlnbu3QMPFn-1" vertex="1">
          <mxGeometry y="350" width="794" height="278" as="geometry" />
        </mxCell>
        <mxCell id="3Z2LKUSVhNlnbu3QMPFn-4" value="&lt;font style=&quot;font-size: 18px;&quot;&gt;// sql_connection_pool.h&amp;nbsp; &amp;nbsp;数据库连接池类定义&lt;/font&gt;" style="text;html=1;align=center;verticalAlign=middle;resizable=0;points=[];autosize=1;strokeColor=none;fillColor=none;" parent="3Z2LKUSVhNlnbu3QMPFn-5" vertex="1">
          <mxGeometry width="389" height="34" as="geometry" />
        </mxCell>
        <mxCell id="3Z2LKUSVhNlnbu3QMPFn-6" value="&lt;span style=&quot;font-size: 18px;&quot;&gt;&lt;i&gt;connectionRAII&lt;/i&gt;&lt;/span&gt;" style="swimlane;fontStyle=1;align=center;verticalAlign=top;childLayout=stackLayout;horizontal=1;startSize=26;horizontalStack=0;resizeParent=1;resizeParentMax=0;resizeLast=0;collapsible=1;marginBottom=0;whiteSpace=wrap;html=1;" parent="1" vertex="1">
          <mxGeometry x="511" y="1017" width="794" height="179" as="geometry" />
        </mxCell>
        <mxCell id="3Z2LKUSVhNlnbu3QMPFn-7" value="&lt;span style=&quot;font-size: 18px;&quot;&gt;- conRAII:&amp;nbsp;&lt;/span&gt;&lt;span style=&quot;font-size: 18px;&quot;&gt;MYSQL *&lt;/span&gt;&lt;div&gt;&lt;span style=&quot;font-size: 18px;&quot;&gt;-&amp;nbsp;&lt;/span&gt;&lt;span style=&quot;background-color: initial; font-size: 18px;&quot;&gt;poolRAII:&amp;nbsp;&lt;/span&gt;&lt;span style=&quot;font-size: 18px; background-color: initial;&quot;&gt;connection_pool *&lt;/span&gt;&lt;/div&gt;" style="text;strokeColor=none;fillColor=default;align=left;verticalAlign=top;spacingLeft=4;spacingRight=4;overflow=hidden;rotatable=0;points=[[0,0.5],[1,0.5]];portConstraint=eastwest;whiteSpace=wrap;html=1;" parent="3Z2LKUSVhNlnbu3QMPFn-6" vertex="1">
          <mxGeometry y="26" width="794" height="69" as="geometry" />
        </mxCell>
        <mxCell id="3Z2LKUSVhNlnbu3QMPFn-8" value="&lt;div&gt;&lt;span style=&quot;font-size: 18px;&quot;&gt;+ connectionRAII(MYSQL **con, connection_pool *connPool)&lt;/span&gt;&lt;/div&gt;&lt;div&gt;&lt;span style=&quot;font-size: 18px;&quot;&gt;+ ~connectionRAII()&lt;/span&gt;&lt;/div&gt;" style="html=1;whiteSpace=wrap;align=left;" parent="3Z2LKUSVhNlnbu3QMPFn-6" vertex="1">
          <mxGeometry y="95" width="794" height="84" as="geometry" />
        </mxCell>
        <mxCell id="xC8Qk2h_2WiXO5208anZ-2" value="1" style="endArrow=open;html=1;endSize=12;startArrow=diamondThin;startSize=14;startFill=1;edgeStyle=orthogonalEdgeStyle;align=left;verticalAlign=bottom;rounded=0;entryX=-0.004;entryY=0.264;entryDx=0;entryDy=0;entryPerimeter=0;strokeWidth=3;" parent="1" target="3Z2LKUSVhNlnbu3QMPFn-2" edge="1">
          <mxGeometry x="-1" y="3" relative="1" as="geometry">
            <mxPoint x="1307" y="1119" as="sourcePoint" />
            <mxPoint x="1467" y="1119" as="targetPoint" />
          </mxGeometry>
        </mxCell>
        <mxCell id="xC8Qk2h_2WiXO5208anZ-3" value="&lt;font style=&quot;font-size: 18px;&quot;&gt;合成/组合关系&lt;/font&gt;" style="text;html=1;align=center;verticalAlign=middle;resizable=0;points=[];autosize=1;strokeColor=none;fillColor=none;" parent="1" vertex="1">
          <mxGeometry x="1380" y="1082" width="131" height="34" as="geometry" />
        </mxCell>
        <mxCell id="0_xGdI18ff12iHaV53ym-1" value="" style="group" parent="1" vertex="1" connectable="0">
          <mxGeometry x="1612" y="620" width="380" height="240" as="geometry" />
        </mxCell>
        <mxCell id="0_xGdI18ff12iHaV53ym-2" value="&lt;font style=&quot;font-size: 14px;&quot;&gt;// 使用RAII机制实现信号量的创建和销毁，并实现PV操作&lt;/font&gt;" style="text;html=1;align=center;verticalAlign=middle;resizable=0;points=[];autosize=1;strokeColor=none;fillColor=none;" parent="0_xGdI18ff12iHaV53ym-1" vertex="1">
          <mxGeometry width="380" height="30" as="geometry" />
        </mxCell>
        <mxCell id="0_xGdI18ff12iHaV53ym-3" value="&lt;font style=&quot;font-size: 20px;&quot;&gt;&lt;i&gt;sem&lt;/i&gt;&lt;/font&gt;" style="swimlane;fontStyle=1;align=center;verticalAlign=top;childLayout=stackLayout;horizontal=1;startSize=30;horizontalStack=0;resizeParent=1;resizeParentMax=0;resizeLast=0;collapsible=1;marginBottom=0;whiteSpace=wrap;html=1;" parent="0_xGdI18ff12iHaV53ym-1" vertex="1">
          <mxGeometry x="10" y="40" width="240" height="204" as="geometry" />
        </mxCell>
        <mxCell id="0_xGdI18ff12iHaV53ym-4" value="&lt;font style=&quot;font-size: 20px;&quot;&gt;- m_sem: sem_t&lt;/font&gt;" style="text;strokeColor=none;fillColor=default;align=left;verticalAlign=top;spacingLeft=4;spacingRight=4;overflow=hidden;rotatable=0;points=[[0,0.5],[1,0.5]];portConstraint=eastwest;whiteSpace=wrap;html=1;" parent="0_xGdI18ff12iHaV53ym-3" vertex="1">
          <mxGeometry y="30" width="240" height="26" as="geometry" />
        </mxCell>
        <mxCell id="0_xGdI18ff12iHaV53ym-5" value="" style="line;strokeWidth=1;fillColor=none;align=left;verticalAlign=middle;spacingTop=-1;spacingLeft=3;spacingRight=3;rotatable=0;labelPosition=right;points=[];portConstraint=eastwest;strokeColor=inherit;" parent="0_xGdI18ff12iHaV53ym-3" vertex="1">
          <mxGeometry y="56" width="240" height="8" as="geometry" />
        </mxCell>
        <mxCell id="0_xGdI18ff12iHaV53ym-6" value="&lt;font style=&quot;font-size: 20px;&quot;&gt;+ sem()&lt;/font&gt;&lt;div&gt;&lt;font size=&quot;3&quot;&gt;+ sem(int num)&lt;/font&gt;&lt;/div&gt;&lt;div&gt;&lt;font size=&quot;3&quot;&gt;+ ~sem()&lt;/font&gt;&lt;/div&gt;&lt;div&gt;&lt;font size=&quot;3&quot;&gt;+ wait(): bool&lt;/font&gt;&lt;/div&gt;&lt;div&gt;&lt;font size=&quot;3&quot;&gt;+ post(): bool&lt;/font&gt;&lt;/div&gt;" style="text;strokeColor=none;fillColor=default;align=left;verticalAlign=top;spacingLeft=4;spacingRight=4;overflow=hidden;rotatable=0;points=[[0,0.5],[1,0.5]];portConstraint=eastwest;whiteSpace=wrap;html=1;" parent="0_xGdI18ff12iHaV53ym-3" vertex="1">
          <mxGeometry y="64" width="240" height="140" as="geometry" />
        </mxCell>
        <mxCell id="RlN9qrxmA2P4i74d4KYu-1" value="" style="group" parent="1" vertex="1" connectable="0">
          <mxGeometry x="2055" y="618" width="330" height="239.16666666666666" as="geometry" />
        </mxCell>
        <mxCell id="RlN9qrxmA2P4i74d4KYu-2" value="&lt;font style=&quot;font-size: 20px;&quot;&gt;&lt;i&gt;locker&lt;/i&gt;&lt;/font&gt;" style="swimlane;fontStyle=1;align=center;verticalAlign=top;childLayout=stackLayout;horizontal=1;startSize=31;horizontalStack=0;resizeParent=1;resizeParentMax=0;resizeLast=0;collapsible=1;marginBottom=0;whiteSpace=wrap;html=1;" parent="RlN9qrxmA2P4i74d4KYu-1" vertex="1">
          <mxGeometry y="39.166666666666664" width="280" height="205.00444444444446" as="geometry" />
        </mxCell>
        <mxCell id="RlN9qrxmA2P4i74d4KYu-3" value="&lt;font style=&quot;font-size: 20px;&quot;&gt;- m_mutex: pthread_mutex_t&lt;/font&gt;" style="text;strokeColor=none;fillColor=default;align=left;verticalAlign=top;spacingLeft=4;spacingRight=4;overflow=hidden;rotatable=0;points=[[0,0.5],[1,0.5]];portConstraint=eastwest;whiteSpace=wrap;html=1;" parent="RlN9qrxmA2P4i74d4KYu-2" vertex="1">
          <mxGeometry y="31" width="280" height="34" as="geometry" />
        </mxCell>
        <mxCell id="RlN9qrxmA2P4i74d4KYu-4" value="" style="line;strokeWidth=1;fillColor=none;align=left;verticalAlign=middle;spacingTop=-1;spacingLeft=3;spacingRight=3;rotatable=0;labelPosition=right;points=[];portConstraint=eastwest;strokeColor=inherit;" parent="RlN9qrxmA2P4i74d4KYu-2" vertex="1">
          <mxGeometry y="65" width="280" height="10.444444444444445" as="geometry" />
        </mxCell>
        <mxCell id="RlN9qrxmA2P4i74d4KYu-5" value="&lt;font style=&quot;font-size: 20px;&quot;&gt;+ locker()&lt;/font&gt;&lt;div&gt;&lt;font size=&quot;3&quot;&gt;+ ~locker()&lt;/font&gt;&lt;/div&gt;&lt;div&gt;&lt;font size=&quot;3&quot;&gt;+ lock(): bool&lt;/font&gt;&lt;/div&gt;&lt;div&gt;&lt;font size=&quot;3&quot;&gt;+ unlock(): bool&lt;/font&gt;&lt;/div&gt;&lt;div&gt;&lt;font size=&quot;3&quot;&gt;+ get(): pthread_mutex_t *&lt;/font&gt;&lt;/div&gt;" style="text;strokeColor=none;fillColor=default;align=left;verticalAlign=top;spacingLeft=4;spacingRight=4;overflow=hidden;rotatable=0;points=[[0,0.5],[1,0.5]];portConstraint=eastwest;whiteSpace=wrap;html=1;" parent="RlN9qrxmA2P4i74d4KYu-2" vertex="1">
          <mxGeometry y="75.44444444444444" width="280" height="129.56" as="geometry" />
        </mxCell>
        <mxCell id="RlN9qrxmA2P4i74d4KYu-6" value="&lt;font style=&quot;font-size: 14px;&quot;&gt;// 使用RAII机制实现互斥锁机制，以实现多线程同步&lt;/font&gt;" style="text;html=1;align=center;verticalAlign=middle;resizable=0;points=[];autosize=1;strokeColor=none;fillColor=none;" parent="RlN9qrxmA2P4i74d4KYu-1" vertex="1">
          <mxGeometry x="-10" width="340" height="30" as="geometry" />
        </mxCell>
        <mxCell id="RlN9qrxmA2P4i74d4KYu-7" value="" style="endArrow=open;endFill=1;endSize=12;html=1;rounded=0;entryX=0.532;entryY=1.03;entryDx=0;entryDy=0;entryPerimeter=0;strokeWidth=3;" parent="1" target="RlN9qrxmA2P4i74d4KYu-5" edge="1">
          <mxGeometry width="160" relative="1" as="geometry">
            <mxPoint x="2204" y="1008" as="sourcePoint" />
            <mxPoint x="2360" y="937" as="targetPoint" />
          </mxGeometry>
        </mxCell>
        <mxCell id="RlN9qrxmA2P4i74d4KYu-8" value="" style="endArrow=open;endFill=1;endSize=12;html=1;rounded=0;entryX=0.532;entryY=1.03;entryDx=0;entryDy=0;entryPerimeter=0;strokeWidth=3;" parent="1" edge="1">
          <mxGeometry width="160" relative="1" as="geometry">
            <mxPoint x="1829" y="1007" as="sourcePoint" />
            <mxPoint x="1829" y="865" as="targetPoint" />
          </mxGeometry>
        </mxCell>
        <mxCell id="RlN9qrxmA2P4i74d4KYu-9" value="&lt;font style=&quot;font-size: 18px;&quot;&gt;关联关系&lt;/font&gt;" style="text;html=1;align=center;verticalAlign=middle;resizable=0;points=[];autosize=1;strokeColor=none;fillColor=none;" parent="1" vertex="1">
          <mxGeometry x="1830" y="915" width="90" height="34" as="geometry" />
        </mxCell>
        <mxCell id="RlN9qrxmA2P4i74d4KYu-10" value="&lt;font style=&quot;font-size: 18px;&quot;&gt;关联关系&lt;/font&gt;" style="text;html=1;align=center;verticalAlign=middle;resizable=0;points=[];autosize=1;strokeColor=none;fillColor=none;" parent="1" vertex="1">
          <mxGeometry x="2214" y="915" width="90" height="34" as="geometry" />
        </mxCell>
      </root>
    </mxGraphModel>
  </diagram>
</mxfile>
